<?xml version="1.0" encoding="UTF-8"?>
<svg xmlns="http://www.w3.org/2000/svg" width="480" height="400" viewBox="0 -40 480 400" role="img" aria-label="Capivara em pose heroica">
  <!-- Patas -->
  <rect x="358" y="208" width="28" height="62" rx="10" fill="#8E4628"/>
  <rect x="378" y="240" width="36" height="20" rx="6" fill="#8E4628"/>
  <rect x="138" y="208" width="28" height="62" rx="10" fill="#8E4628"/>
  <rect x="120" y="240" width="36" height="20" rx="6" fill="#8E4628"/>
  <!-- Corpo -->
  <path d="M 60 168 Q 58 128 96 118 Q 118 92 156 96 Q 178 80 220 80 L 360 80 Q 420 82 432 130 Q 440 142 438 168 Q 438 215 388 220 L 110 220 Q 60 218 60 178 Z" fill="#C46A3F"/>
  <path d="M 100 200 Q 200 218 380 210 Q 410 212 420 200 L 420 220 L 100 220 Z" fill="#8E4628" opacity=".32"/>
  <path d="M 60 158 Q 58 132 96 118 Q 102 132 100 156 Q 80 162 60 170 Z" fill="#A05533"/>
  <!-- Orelha -->
  <ellipse cx="178" cy="82" rx="16" ry="12" fill="#C46A3F"/>
  <ellipse cx="178" cy="84" rx="8" ry="6" fill="#8E4628"/>
  <!-- Olho confiante -->
  <circle cx="116" cy="135" r="5.5" fill="#1F1611"/>
  <circle cx="118" cy="133" r="1.6" fill="#F4EAD8"/>
  <ellipse cx="72" cy="142" rx="3" ry="2.2" fill="#1F1611"/>
  <!-- Sorriso confiante -->
  <path d="M 62 158 Q 70 162 82 160" stroke="#1F1611" stroke-width="1.6" fill="none" stroke-linecap="round"/>
  <!-- Sol/aura ao redor -->
  <g opacity="0.75">
    <circle cx="240" cy="160" r="180" fill="none" stroke="#E8A547" stroke-width="2" stroke-dasharray="2 8"/>
  </g>
  <!-- Estrela de status -->
  <path d="M 420 60 L 425 76 L 442 76 L 428 86 L 433 102 L 420 92 L 407 102 L 412 86 L 398 76 L 415 76 Z" fill="#E8A547"/>
</svg>
