<?xml version="1.0" encoding="UTF-8"?>
<svg xmlns="http://www.w3.org/2000/svg" width="480" height="320" viewBox="0 0 480 320" role="img" aria-label="Capivara investigando com lupa">
  <!-- Patas -->
  <rect x="358" y="208" width="28" height="62" rx="10" fill="#8E4628"/>
  <rect x="378" y="240" width="36" height="20" rx="6" fill="#8E4628"/>
  <rect x="138" y="208" width="28" height="62" rx="10" fill="#8E4628"/>
  <rect x="120" y="240" width="36" height="20" rx="6" fill="#8E4628"/>
  <!-- Corpo -->
  <path d="M 60 168 Q 58 128 96 118 Q 118 92 156 96 Q 178 80 220 80 L 360 80 Q 420 82 432 130 Q 440 142 438 168 Q 438 215 388 220 L 110 220 Q 60 218 60 178 Z" fill="#C46A3F"/>
  <!-- Sombra inferior -->
  <path d="M 100 200 Q 200 218 380 210 Q 410 212 420 200 L 420 220 L 100 220 Z" fill="#8E4628" opacity=".32"/>
  <!-- Focinho -->
  <path d="M 60 158 Q 58 132 96 118 Q 102 132 100 156 Q 80 162 60 170 Z" fill="#A05533"/>
  <!-- Orelha -->
  <ellipse cx="178" cy="82" rx="16" ry="12" fill="#C46A3F"/>
  <ellipse cx="178" cy="84" rx="8" ry="6" fill="#8E4628"/>
  <!-- Olho concentrado -->
  <circle cx="116" cy="135" r="5.5" fill="#1F1611"/>
  <circle cx="118" cy="133" r="1.6" fill="#F4EAD8"/>
  <!-- Narina -->
  <ellipse cx="72" cy="142" rx="3" ry="2.2" fill="#1F1611"/>
  <!-- Sorriso -->
  <path d="M 62 158 Q 70 162 82 160" stroke="#1F1611" stroke-width="1.6" fill="none" stroke-linecap="round"/>
  <!-- Lupa: aro + brilho amarelo + cabo -->
  <circle cx="34" cy="200" r="40" fill="none" stroke="#1F1611" stroke-width="6"/>
  <circle cx="34" cy="200" r="34" fill="#E8A547" opacity=".25"/>
  <line x1="62" y1="228" x2="92" y2="262" stroke="#1F1611" stroke-width="8" stroke-linecap="round"/>
</svg>
